<svg width="268" height="50" viewBox="0 0 268 50" fill="none" xmlns="http://www.w3.org/2000/svg">
<rect x="0.5" y="0.5" width="267" height="49" rx="24.5" fill="white"/>
<rect x="0.5" y="0.5" width="267" height="49" rx="24.5" stroke="black"/>
<path d="M50.1104 18.9639C50.6167 18.3496 50.9736 17.5112 50.9736 16.6646C50.9736 16.5483 50.9653 16.4321 50.9487 16.3408C50.1187 16.374 49.1226 16.8887 48.5332 17.5859C48.0601 18.1172 47.6284 18.9639 47.6284 19.8105C47.6284 19.9434 47.6533 20.0679 47.6616 20.1094C47.7114 20.1177 47.7944 20.1343 47.8857 20.1343C48.6245 20.1343 49.5542 19.6362 50.1104 18.9639ZM50.6914 20.3086C49.4546 20.3086 48.4419 21.064 47.7944 21.064C47.1055 21.064 46.209 20.3584 45.1299 20.3584C43.0796 20.3584 41.0044 22.0518 41.0044 25.2393C41.0044 27.2314 41.7681 29.3315 42.7227 30.6846C43.5361 31.8301 44.25 32.7681 45.2793 32.7681C46.292 32.7681 46.7402 32.0957 48.002 32.0957C49.2803 32.0957 49.5708 32.7515 50.6914 32.7515C51.8037 32.7515 52.5425 31.7305 53.248 30.7261C54.0283 29.5723 54.3604 28.4517 54.3687 28.3936C54.3022 28.377 52.1772 27.5054 52.1772 25.0732C52.1772 22.9648 53.8457 22.0186 53.9453 21.9438C52.8413 20.3584 51.1562 20.3086 50.6914 20.3086Z" fill="black"/>
<path d="M72.4746 31.2988C69.0796 31.2988 66.9712 28.8916 66.9712 25.0234V25.0068C66.9712 21.1221 69.0713 18.7231 72.4663 18.7231C75.189 18.7231 77.2559 20.4497 77.5381 22.8984V22.9648H75.438L75.4297 22.9316C75.1226 21.5122 73.9771 20.5742 72.4663 20.5742C70.4326 20.5742 69.1626 22.2759 69.1626 24.9985V25.0151C69.1626 27.7461 70.4326 29.4478 72.4746 29.4478C73.9937 29.4478 75.1226 28.6011 75.4297 27.2812L75.438 27.2397H77.5381V27.2979C77.2227 29.6968 75.2388 31.2988 72.4746 31.2988ZM83.2229 31.1826C80.5002 31.1826 78.8566 29.4062 78.8566 26.4678V26.4512C78.8566 23.5376 80.5251 21.7529 83.2229 21.7529C85.9289 21.7529 87.5891 23.5293 87.5891 26.4512V26.4678C87.5891 29.4062 85.9372 31.1826 83.2229 31.1826ZM83.2229 29.5059C84.6589 29.5059 85.4724 28.3853 85.4724 26.4761V26.4595C85.4724 24.5503 84.6506 23.4214 83.2229 23.4214C81.7868 23.4214 80.965 24.5503 80.965 26.4595V26.4761C80.965 28.3853 81.7868 29.5059 83.2229 29.5059ZM89.2563 31V21.9272H91.3232V23.3135H91.4643C91.8959 22.3423 92.7675 21.7529 94.079 21.7529C96.1044 21.7529 97.2084 22.9731 97.2084 25.1313V31H95.1415V25.6128C95.1415 24.2017 94.5688 23.4878 93.3153 23.4878C92.0868 23.4878 91.3232 24.3511 91.3232 25.7124V31H89.2563ZM102.81 31.0415C100.727 31.0415 99.8717 30.3442 99.8717 28.5928V23.5293H98.4606V21.9272H99.8717V19.7026H101.972V21.9272H103.889V23.5293H101.972V28.103C101.972 29.0078 102.329 29.3896 103.192 29.3896C103.483 29.3896 103.64 29.3813 103.889 29.3564V30.9502C103.59 31.0083 103.209 31.0415 102.81 31.0415ZM106.602 20.4082C105.922 20.4082 105.366 19.8687 105.366 19.188C105.366 18.5156 105.922 17.9678 106.602 17.9678C107.275 17.9678 107.831 18.5156 107.831 19.188C107.831 19.8687 107.275 20.4082 106.602 20.4082ZM105.565 31V21.9272H107.632V31H105.565ZM109.764 31V21.9272H111.831V23.3135H111.972C112.403 22.3423 113.275 21.7529 114.586 21.7529C116.612 21.7529 117.716 22.9731 117.716 25.1313V31H115.649V25.6128C115.649 24.2017 115.076 23.4878 113.823 23.4878C112.594 23.4878 111.831 24.3511 111.831 25.7124V31H109.764ZM122.753 31.1826C120.711 31.1826 119.665 29.9541 119.665 27.7959V21.9272H121.732V27.3228C121.732 28.7256 122.255 29.4395 123.5 29.4395C124.837 29.4395 125.551 28.5762 125.551 27.2148V21.9272H127.617V31H125.551V29.6221H125.409C124.986 30.5933 124.065 31.1826 122.753 31.1826ZM133.618 31.1826C130.92 31.1826 129.285 29.373 129.285 26.4844V26.4761C129.285 23.6206 130.936 21.7529 133.518 21.7529C136.1 21.7529 137.693 23.5625 137.693 26.3018V26.9824H131.352C131.376 28.6094 132.256 29.5557 133.659 29.5557C134.78 29.5557 135.419 28.9912 135.618 28.5762L135.643 28.5181H137.61L137.585 28.5928C137.295 29.7632 136.083 31.1826 133.618 31.1826ZM133.543 23.3716C132.389 23.3716 131.526 24.1519 131.368 25.5962H135.676C135.535 24.1104 134.697 23.3716 133.543 23.3716ZM145.203 31L142.746 21.9272H144.821L146.332 28.7422H146.473L148.216 21.9272H150.183L151.943 28.7422H152.084L153.587 21.9272H155.637L153.18 31H151.014L149.245 24.4258H149.104L147.345 31H145.203ZM158.093 20.4082C157.412 20.4082 156.856 19.8687 156.856 19.188C156.856 18.5156 157.412 17.9678 158.093 17.9678C158.765 17.9678 159.321 18.5156 159.321 19.188C159.321 19.8687 158.765 20.4082 158.093 20.4082ZM157.055 31V21.9272H159.122V31H157.055ZM164.824 31.0415C162.74 31.0415 161.885 30.3442 161.885 28.5928V23.5293H160.474V21.9272H161.885V19.7026H163.985V21.9272H165.903V23.5293H163.985V28.103C163.985 29.0078 164.342 29.3896 165.205 29.3896C165.496 29.3896 165.654 29.3813 165.903 29.3564V30.9502C165.604 31.0083 165.222 31.0415 164.824 31.0415ZM167.636 31V18.416H169.703V23.3135H169.844C170.276 22.3423 171.147 21.7529 172.459 21.7529C174.484 21.7529 175.588 22.9731 175.588 25.1313V31H173.521V25.6128C173.521 24.2017 172.949 23.4878 171.695 23.4878C170.467 23.4878 169.703 24.3511 169.703 25.7124V31H167.636ZM181.073 31L185.323 19.022H187.738L191.988 31H189.747L188.743 27.9038H184.31L183.314 31H181.073ZM186.46 21.2466L184.85 26.252H188.211L186.601 21.2466H186.46ZM193.423 34.0132V21.9272H195.49V23.3467H195.631C196.129 22.3589 197.117 21.7778 198.387 21.7778C200.661 21.7778 202.114 23.5874 202.114 26.4595V26.4761C202.114 29.3647 200.686 31.1494 198.387 31.1494C197.142 31.1494 196.104 30.5352 195.631 29.5557H195.49V34.0132H193.423ZM197.739 29.4062C199.151 29.4062 200.005 28.2939 200.005 26.4761V26.4595C200.005 24.6333 199.151 23.521 197.739 23.521C196.337 23.521 195.465 24.6333 195.465 26.4512V26.4678C195.465 28.2856 196.337 29.4062 197.739 29.4062ZM203.789 34.0132V21.9272H205.856V23.3467H205.997C206.495 22.3589 207.483 21.7778 208.753 21.7778C211.028 21.7778 212.48 23.5874 212.48 26.4595V26.4761C212.48 29.3647 211.053 31.1494 208.753 31.1494C207.508 31.1494 206.471 30.5352 205.997 29.5557H205.856V34.0132H203.789ZM208.106 29.4062C209.517 29.4062 210.372 28.2939 210.372 26.4761V26.4595C210.372 24.6333 209.517 23.521 208.106 23.521C206.703 23.521 205.831 24.6333 205.831 26.4512V26.4678C205.831 28.2856 206.703 29.4062 208.106 29.4062ZM214.239 31V18.416H216.306V31H214.239ZM222.397 31.1826C219.699 31.1826 218.064 29.373 218.064 26.4844V26.4761C218.064 23.6206 219.716 21.7529 222.298 21.7529C224.879 21.7529 226.473 23.5625 226.473 26.3018V26.9824H220.131C220.156 28.6094 221.036 29.5557 222.439 29.5557C223.559 29.5557 224.198 28.9912 224.398 28.5762L224.423 28.5181H226.39L226.365 28.5928C226.074 29.7632 224.863 31.1826 222.397 31.1826ZM222.323 23.3716C221.169 23.3716 220.305 24.1519 220.148 25.5962H224.456C224.315 24.1104 223.476 23.3716 222.323 23.3716Z" fill="black"/>
</svg>
