<svg width="268" height="50" viewBox="0 0 268 50" fill="none" xmlns="http://www.w3.org/2000/svg">
<rect x="0.5" y="0.5" width="267" height="49" rx="24.5" fill="white"/>
<rect x="0.5" y="0.5" width="267" height="49" rx="24.5" stroke="#747775"/>
<mask id="mask0_2313_11248" style="mask-type:luminance" maskUnits="userSpaceOnUse" x="40" y="15" width="20" height="20">
<path d="M60 15H40V35H60V15Z" fill="white"/>
</mask>
<g mask="url(#mask0_2313_11248)">
<path d="M59.6 25.2273C59.6 24.5182 59.5364 23.8364 59.4182 23.1818H50V27.05H55.3818C55.15 28.3 54.4455 29.3591 53.3864 30.0682V32.5773H56.6182C58.5091 30.8364 59.6 28.2727 59.6 25.2273Z" fill="#4285F4"/>
<path d="M50.0009 35C52.7009 35 54.9645 34.1045 56.619 32.5773L53.3872 30.0682C52.4918 30.6682 51.3463 31.0227 50.0009 31.0227C47.3963 31.0227 45.1918 29.2636 44.4054 26.9H41.0645V29.4909C42.71 32.7591 46.0918 35 50.0009 35Z" fill="#34A853"/>
<path d="M44.4045 26.9001C44.2045 26.3001 44.0909 25.6592 44.0909 25.0001C44.0909 24.341 44.2045 23.7001 44.4045 23.1001V20.5092H41.0636C40.3864 21.8592 40 23.3865 40 25.0001C40 26.6137 40.3864 28.141 41.0636 29.491L44.4045 26.9001Z" fill="#FBBC04"/>
<path d="M50.0009 18.9773C51.469 18.9773 52.7872 19.4818 53.8236 20.4727L56.6918 17.6045C54.96 15.9909 52.6963 15 50.0009 15C46.0918 15 42.71 17.2409 41.0645 20.5091L44.4054 23.1C45.1918 20.7364 47.3963 18.9773 50.0009 18.9773Z" fill="#E94235"/>
</g>
<path d="M76.4746 31.2988C73.0796 31.2988 70.9712 28.8916 70.9712 25.0234V25.0068C70.9712 21.1221 73.0713 18.7231 76.4663 18.7231C79.189 18.7231 81.2559 20.4497 81.5381 22.8984V22.9648H79.438L79.4297 22.9316C79.1226 21.5122 77.9771 20.5742 76.4663 20.5742C74.4326 20.5742 73.1626 22.2759 73.1626 24.9985V25.0151C73.1626 27.7461 74.4326 29.4478 76.4746 29.4478C77.9937 29.4478 79.1226 28.6011 79.4297 27.2812L79.438 27.2397H81.5381V27.2979C81.2227 29.6968 79.2388 31.2988 76.4746 31.2988ZM87.2229 31.1826C84.5002 31.1826 82.8566 29.4062 82.8566 26.4678V26.4512C82.8566 23.5376 84.5251 21.7529 87.2229 21.7529C89.9289 21.7529 91.5891 23.5293 91.5891 26.4512V26.4678C91.5891 29.4062 89.9372 31.1826 87.2229 31.1826ZM87.2229 29.5059C88.6589 29.5059 89.4724 28.3853 89.4724 26.4761V26.4595C89.4724 24.5503 88.6506 23.4214 87.2229 23.4214C85.7868 23.4214 84.965 24.5503 84.965 26.4595V26.4761C84.965 28.3853 85.7868 29.5059 87.2229 29.5059ZM93.2563 31V21.9272H95.3232V23.3135H95.4643C95.8959 22.3423 96.7675 21.7529 98.079 21.7529C100.104 21.7529 101.208 22.9731 101.208 25.1313V31H99.1415V25.6128C99.1415 24.2017 98.5688 23.4878 97.3153 23.4878C96.0868 23.4878 95.3232 24.3511 95.3232 25.7124V31H93.2563ZM106.81 31.0415C104.727 31.0415 103.872 30.3442 103.872 28.5928V23.5293H102.461V21.9272H103.872V19.7026H105.972V21.9272H107.889V23.5293H105.972V28.103C105.972 29.0078 106.329 29.3896 107.192 29.3896C107.483 29.3896 107.64 29.3813 107.889 29.3564V30.9502C107.59 31.0083 107.209 31.0415 106.81 31.0415ZM110.602 20.4082C109.922 20.4082 109.366 19.8687 109.366 19.188C109.366 18.5156 109.922 17.9678 110.602 17.9678C111.275 17.9678 111.831 18.5156 111.831 19.188C111.831 19.8687 111.275 20.4082 110.602 20.4082ZM109.565 31V21.9272H111.632V31H109.565ZM113.764 31V21.9272H115.831V23.3135H115.972C116.403 22.3423 117.275 21.7529 118.586 21.7529C120.612 21.7529 121.716 22.9731 121.716 25.1313V31H119.649V25.6128C119.649 24.2017 119.076 23.4878 117.823 23.4878C116.594 23.4878 115.831 24.3511 115.831 25.7124V31H113.764ZM126.753 31.1826C124.711 31.1826 123.665 29.9541 123.665 27.7959V21.9272H125.732V27.3228C125.732 28.7256 126.255 29.4395 127.5 29.4395C128.837 29.4395 129.551 28.5762 129.551 27.2148V21.9272H131.617V31H129.551V29.6221H129.409C128.986 30.5933 128.065 31.1826 126.753 31.1826ZM137.618 31.1826C134.92 31.1826 133.285 29.373 133.285 26.4844V26.4761C133.285 23.6206 134.936 21.7529 137.518 21.7529C140.1 21.7529 141.693 23.5625 141.693 26.3018V26.9824H135.352C135.376 28.6094 136.256 29.5557 137.659 29.5557C138.78 29.5557 139.419 28.9912 139.618 28.5762L139.643 28.5181H141.61L141.585 28.5928C141.295 29.7632 140.083 31.1826 137.618 31.1826ZM137.543 23.3716C136.389 23.3716 135.526 24.1519 135.368 25.5962H139.676C139.535 24.1104 138.697 23.3716 137.543 23.3716ZM149.203 31L146.746 21.9272H148.821L150.332 28.7422H150.473L152.216 21.9272H154.183L155.943 28.7422H156.084L157.587 21.9272H159.637L157.18 31H155.014L153.245 24.4258H153.104L151.345 31H149.203ZM162.093 20.4082C161.412 20.4082 160.856 19.8687 160.856 19.188C160.856 18.5156 161.412 17.9678 162.093 17.9678C162.765 17.9678 163.321 18.5156 163.321 19.188C163.321 19.8687 162.765 20.4082 162.093 20.4082ZM161.055 31V21.9272H163.122V31H161.055ZM168.824 31.0415C166.74 31.0415 165.885 30.3442 165.885 28.5928V23.5293H164.474V21.9272H165.885V19.7026H167.985V21.9272H169.903V23.5293H167.985V28.103C167.985 29.0078 168.342 29.3896 169.205 29.3896C169.496 29.3896 169.654 29.3813 169.903 29.3564V30.9502C169.604 31.0083 169.222 31.0415 168.824 31.0415ZM171.636 31V18.416H173.703V23.3135H173.844C174.276 22.3423 175.147 21.7529 176.459 21.7529C178.484 21.7529 179.588 22.9731 179.588 25.1313V31H177.521V25.6128C177.521 24.2017 176.949 23.4878 175.695 23.4878C174.467 23.4878 173.703 24.3511 173.703 25.7124V31H171.636ZM191.082 31.2988C187.613 31.2988 185.455 28.8833 185.455 25.0151V24.9985C185.455 21.1719 187.638 18.7231 191.049 18.7231C193.813 18.7231 195.806 20.3086 196.212 22.6494L196.221 22.7324H194.096L194.071 22.6494C193.681 21.3379 192.585 20.5742 191.049 20.5742C188.957 20.5742 187.638 22.2759 187.638 24.9819V24.9985C187.638 27.7461 188.982 29.4478 191.116 29.4478C192.942 29.4478 194.187 28.3105 194.212 26.6089L194.22 26.3599H191.348V24.7246H196.32V26.2188C196.32 29.3149 194.278 31.2988 191.082 31.2988ZM202.105 31.1826C199.382 31.1826 197.738 29.4062 197.738 26.4678V26.4512C197.738 23.5376 199.407 21.7529 202.105 21.7529C204.811 21.7529 206.471 23.5293 206.471 26.4512V26.4678C206.471 29.4062 204.819 31.1826 202.105 31.1826ZM202.105 29.5059C203.541 29.5059 204.354 28.3853 204.354 26.4761V26.4595C204.354 24.5503 203.532 23.4214 202.105 23.4214C200.669 23.4214 199.847 24.5503 199.847 26.4595V26.4761C199.847 28.3853 200.669 29.5059 202.105 29.5059ZM212.056 31.1826C209.333 31.1826 207.69 29.4062 207.69 26.4678V26.4512C207.69 23.5376 209.358 21.7529 212.056 21.7529C214.762 21.7529 216.422 23.5293 216.422 26.4512V26.4678C216.422 29.4062 214.77 31.1826 212.056 31.1826ZM212.056 29.5059C213.492 29.5059 214.305 28.3853 214.305 26.4761V26.4595C214.305 24.5503 213.484 23.4214 212.056 23.4214C210.62 23.4214 209.798 24.5503 209.798 26.4595V26.4761C209.798 28.3853 210.62 29.5059 212.056 29.5059ZM221.991 34.1875C219.6 34.1875 218.164 33.1665 217.957 31.6392L217.965 31.6143H220.032L220.04 31.6392C220.181 32.2202 220.87 32.627 222.024 32.627C223.435 32.627 224.257 31.9712 224.257 30.8091V29.0742H224.116C223.593 30.0454 222.605 30.5767 221.352 30.5767C219.052 30.5767 217.625 28.8003 217.625 26.2271V26.2104C217.625 23.5874 219.052 21.7778 221.393 21.7778C222.647 21.7778 223.626 22.3921 224.141 23.4214H224.249V21.9272H226.315V30.7759C226.315 32.8677 224.639 34.1875 221.991 34.1875ZM221.991 28.9331C223.427 28.9331 224.29 27.8291 224.29 26.2271V26.2104C224.29 24.6084 223.418 23.4961 221.991 23.4961C220.555 23.4961 219.741 24.6084 219.741 26.2104V26.2271C219.741 27.8291 220.555 28.9331 221.991 28.9331ZM228.522 31V18.416H230.589V31H228.522ZM236.681 31.1826C233.983 31.1826 232.348 29.373 232.348 26.4844V26.4761C232.348 23.6206 233.999 21.7529 236.581 21.7529C239.163 21.7529 240.756 23.5625 240.756 26.3018V26.9824H234.415C234.439 28.6094 235.319 29.5557 236.722 29.5557C237.843 29.5557 238.482 28.9912 238.681 28.5762L238.706 28.5181H240.673L240.648 28.5928C240.358 29.7632 239.146 31.1826 236.681 31.1826ZM236.606 23.3716C235.452 23.3716 234.589 24.1519 234.431 25.5962H238.739C238.598 24.1104 237.76 23.3716 236.606 23.3716Z" fill="#1F1F1F"/>
</svg>
