<svg width="268" height="50" viewBox="0 0 268 50" fill="none" xmlns="http://www.w3.org/2000/svg">
<rect x="0.5" y="0.5" width="267" height="49" rx="24.5" fill="white"/>
<rect x="0.5" y="0.5" width="267" height="49" rx="24.5" stroke="black"/>
<path d="M59.2572 18.78C59.2572 18.7772 59.2572 18.7747 59.2564 18.7719C59.2556 18.7691 59.2553 18.762 59.255 18.7572C59.2533 18.7355 59.2489 18.7141 59.242 18.6935C59.2411 18.6906 59.242 18.6877 59.2403 18.6849C59.2386 18.682 59.2387 18.6825 59.2383 18.6813C59.2294 18.6586 59.2174 18.6372 59.2028 18.6177C59.1995 18.6133 59.1961 18.6094 59.1925 18.6052C59.1783 18.5879 59.162 18.5725 59.1441 18.5592C59.1422 18.5578 59.1406 18.5561 59.1387 18.5549C59.1187 18.5416 59.0969 18.5311 59.0741 18.5236C59.0687 18.5217 59.0634 18.5202 59.0584 18.5186C59.0344 18.5114 59.0095 18.5076 58.9844 18.5072H41.015C40.9899 18.5076 40.965 18.5114 40.9409 18.5186C40.9355 18.5202 40.9303 18.5217 40.9253 18.5236C40.9025 18.5311 40.8807 18.5416 40.8606 18.5549C40.8587 18.5561 40.8572 18.5578 40.8553 18.5592C40.8374 18.5725 40.8211 18.5879 40.8069 18.6052C40.8034 18.6094 40.7998 18.6133 40.7966 18.6177C40.7819 18.6372 40.77 18.6586 40.7611 18.6813C40.7611 18.6825 40.7595 18.6836 40.7591 18.6849C40.7586 18.6861 40.7583 18.6906 40.7573 18.6935C40.7505 18.7141 40.7461 18.7355 40.7444 18.7572C40.7444 18.7622 40.743 18.767 40.743 18.7719C40.743 18.7767 40.7422 18.7772 40.7422 18.78V31.2199C40.7422 31.2235 40.7431 31.2269 40.7433 31.2305C40.7437 31.2403 40.7447 31.2501 40.7463 31.2599C40.7475 31.2678 40.7486 31.2755 40.7505 31.2836C40.7529 31.2931 40.7558 31.3024 40.7592 31.3116C40.7619 31.3189 40.7644 31.3263 40.7677 31.3333C40.772 31.3425 40.7768 31.3515 40.7822 31.3602C40.7859 31.3664 40.7897 31.3728 40.7939 31.3788C40.8 31.387 40.8065 31.395 40.8134 31.4025C40.8186 31.4081 40.8237 31.4138 40.8291 31.4191C40.8323 31.422 40.8348 31.4256 40.8383 31.4286C40.8417 31.4316 40.8439 31.4313 40.8464 31.4333C40.8677 31.4505 40.8915 31.4643 40.917 31.4744C40.9225 31.4766 40.9281 31.4778 40.9337 31.4795C40.9584 31.4876 40.9841 31.4921 41.01 31.4928C41.0119 31.4928 41.0136 31.4938 41.0155 31.4938H41.0191H58.9803H58.9839C58.9858 31.4938 58.9875 31.4928 58.9892 31.4928C59.0152 31.4921 59.0409 31.4876 59.0656 31.4795C59.0711 31.4778 59.0766 31.4766 59.0812 31.4744C59.1068 31.4644 59.1307 31.4505 59.152 31.4333C59.1545 31.4313 59.1577 31.4306 59.1602 31.4286C59.1627 31.4266 59.1661 31.422 59.1694 31.4191C59.175 31.4138 59.1802 31.4083 59.185 31.4025C59.192 31.395 59.1985 31.387 59.2045 31.3788C59.2087 31.3728 59.2125 31.3666 59.2162 31.3602C59.2216 31.3515 59.2264 31.3425 59.2308 31.3333C59.2341 31.3263 59.2366 31.3189 59.2392 31.3116C59.2426 31.3024 59.2456 31.2931 59.248 31.2836C59.2498 31.2758 59.2509 31.268 59.2522 31.2599C59.2537 31.2501 59.2547 31.2403 59.2552 31.2305C59.2552 31.2269 59.2562 31.2235 59.2562 31.2199L59.2572 18.78ZM47.1556 24.4244L49.8209 26.7177C49.8706 26.7603 49.9338 26.7838 49.9993 26.7838C50.0647 26.7838 50.128 26.7603 50.1777 26.7177L52.8431 24.4244L58.3919 30.9464H41.607L47.1556 24.4244ZM41.2884 30.4769V19.3761L46.7416 24.0677L41.2884 30.4769ZM53.2572 24.0677L58.7103 19.3761V30.4769L53.2572 24.0677ZM58.2464 19.0535L52.6987 23.827C52.6978 23.8278 52.6966 23.8283 52.6956 23.8292C52.6947 23.8302 52.6937 23.8314 52.6927 23.8324L49.9994 26.1497L47.3061 23.8324C47.305 23.8314 47.3042 23.8302 47.3031 23.8292L47.3 23.827L41.752 19.0535H58.2464Z" fill="black"/>
<path d="M76.4746 31.2988C73.0796 31.2988 70.9712 28.8916 70.9712 25.0234V25.0068C70.9712 21.1221 73.0713 18.7231 76.4663 18.7231C79.189 18.7231 81.2559 20.4497 81.5381 22.8984V22.9648H79.438L79.4297 22.9316C79.1226 21.5122 77.9771 20.5742 76.4663 20.5742C74.4326 20.5742 73.1626 22.2759 73.1626 24.9985V25.0151C73.1626 27.7461 74.4326 29.4478 76.4746 29.4478C77.9937 29.4478 79.1226 28.6011 79.4297 27.2812L79.438 27.2397H81.5381V27.2979C81.2227 29.6968 79.2388 31.2988 76.4746 31.2988ZM87.2229 31.1826C84.5002 31.1826 82.8566 29.4062 82.8566 26.4678V26.4512C82.8566 23.5376 84.5251 21.7529 87.2229 21.7529C89.9289 21.7529 91.5891 23.5293 91.5891 26.4512V26.4678C91.5891 29.4062 89.9372 31.1826 87.2229 31.1826ZM87.2229 29.5059C88.6589 29.5059 89.4724 28.3853 89.4724 26.4761V26.4595C89.4724 24.5503 88.6506 23.4214 87.2229 23.4214C85.7868 23.4214 84.965 24.5503 84.965 26.4595V26.4761C84.965 28.3853 85.7868 29.5059 87.2229 29.5059ZM93.2563 31V21.9272H95.3232V23.3135H95.4643C95.8959 22.3423 96.7675 21.7529 98.079 21.7529C100.104 21.7529 101.208 22.9731 101.208 25.1313V31H99.1415V25.6128C99.1415 24.2017 98.5688 23.4878 97.3153 23.4878C96.0868 23.4878 95.3232 24.3511 95.3232 25.7124V31H93.2563ZM106.81 31.0415C104.727 31.0415 103.872 30.3442 103.872 28.5928V23.5293H102.461V21.9272H103.872V19.7026H105.972V21.9272H107.889V23.5293H105.972V28.103C105.972 29.0078 106.329 29.3896 107.192 29.3896C107.483 29.3896 107.64 29.3813 107.889 29.3564V30.9502C107.59 31.0083 107.209 31.0415 106.81 31.0415ZM110.602 20.4082C109.922 20.4082 109.366 19.8687 109.366 19.188C109.366 18.5156 109.922 17.9678 110.602 17.9678C111.275 17.9678 111.831 18.5156 111.831 19.188C111.831 19.8687 111.275 20.4082 110.602 20.4082ZM109.565 31V21.9272H111.632V31H109.565ZM113.764 31V21.9272H115.831V23.3135H115.972C116.403 22.3423 117.275 21.7529 118.586 21.7529C120.612 21.7529 121.716 22.9731 121.716 25.1313V31H119.649V25.6128C119.649 24.2017 119.076 23.4878 117.823 23.4878C116.594 23.4878 115.831 24.3511 115.831 25.7124V31H113.764ZM126.753 31.1826C124.711 31.1826 123.665 29.9541 123.665 27.7959V21.9272H125.732V27.3228C125.732 28.7256 126.255 29.4395 127.5 29.4395C128.837 29.4395 129.551 28.5762 129.551 27.2148V21.9272H131.617V31H129.551V29.6221H129.409C128.986 30.5933 128.065 31.1826 126.753 31.1826ZM137.618 31.1826C134.92 31.1826 133.285 29.373 133.285 26.4844V26.4761C133.285 23.6206 134.936 21.7529 137.518 21.7529C140.1 21.7529 141.693 23.5625 141.693 26.3018V26.9824H135.352C135.376 28.6094 136.256 29.5557 137.659 29.5557C138.78 29.5557 139.419 28.9912 139.618 28.5762L139.643 28.5181H141.61L141.585 28.5928C141.295 29.7632 140.083 31.1826 137.618 31.1826ZM137.543 23.3716C136.389 23.3716 135.526 24.1519 135.368 25.5962H139.676C139.535 24.1104 138.697 23.3716 137.543 23.3716ZM149.203 31L146.746 21.9272H148.821L150.332 28.7422H150.473L152.216 21.9272H154.183L155.943 28.7422H156.084L157.587 21.9272H159.637L157.18 31H155.014L153.245 24.4258H153.104L151.345 31H149.203ZM162.093 20.4082C161.412 20.4082 160.856 19.8687 160.856 19.188C160.856 18.5156 161.412 17.9678 162.093 17.9678C162.765 17.9678 163.321 18.5156 163.321 19.188C163.321 19.8687 162.765 20.4082 162.093 20.4082ZM161.055 31V21.9272H163.122V31H161.055ZM168.824 31.0415C166.74 31.0415 165.885 30.3442 165.885 28.5928V23.5293H164.474V21.9272H165.885V19.7026H167.985V21.9272H169.903V23.5293H167.985V28.103C167.985 29.0078 168.342 29.3896 169.205 29.3896C169.496 29.3896 169.654 29.3813 169.903 29.3564V30.9502C169.604 31.0083 169.222 31.0415 168.824 31.0415ZM171.636 31V18.416H173.703V23.3135H173.844C174.276 22.3423 175.147 21.7529 176.459 21.7529C178.484 21.7529 179.588 22.9731 179.588 25.1313V31H177.521V25.6128C177.521 24.2017 176.949 23.4878 175.695 23.4878C174.467 23.4878 173.703 24.3511 173.703 25.7124V31H171.636ZM185.961 31V19.022H193.714V20.8232H188.102V24.0688H193.407V25.7705H188.102V29.1987H193.714V31H185.961ZM195.788 27.1069V25.231H201.333V27.1069H195.788ZM203.722 31V19.022H206.179L209.782 28.2358H209.923L213.517 19.022H215.974V31H214.048V22.4834H213.899L210.578 31H209.118L205.797 22.4834H205.656V31H203.722ZM220.779 31.1494C219.052 31.1494 217.799 30.0869 217.799 28.4351V28.4185C217.799 26.7998 219.036 25.8535 221.244 25.7207L223.576 25.5796V24.7993C223.576 23.8945 222.987 23.3965 221.875 23.3965C220.928 23.3965 220.314 23.7368 220.106 24.3345L220.098 24.3677H218.147L218.156 24.293C218.355 22.7656 219.816 21.7529 221.974 21.7529C224.307 21.7529 225.618 22.8818 225.618 24.7993V31H223.576V29.7549H223.435C222.937 30.6348 221.974 31.1494 220.779 31.1494ZM219.841 28.3354C219.841 29.1074 220.497 29.564 221.41 29.564C222.655 29.564 223.576 28.7505 223.576 27.6714V26.9409L221.534 27.0737C220.38 27.1484 219.841 27.5718 219.841 28.3188V28.3354ZM228.755 20.4082C228.074 20.4082 227.518 19.8687 227.518 19.188C227.518 18.5156 228.074 17.9678 228.755 17.9678C229.427 17.9678 229.983 18.5156 229.983 19.188C229.983 19.8687 229.427 20.4082 228.755 20.4082ZM227.717 31V21.9272H229.784V31H227.717ZM231.999 31V18.416H234.066V31H231.999Z" fill="black"/>
</svg>
