<svg width="32" height="32" viewBox="0 0 32 32" fill="none" xmlns="http://www.w3.org/2000/svg">
<path d="M19 23H3V18C3 15.8 4.8 14 7 14H24" stroke="black" stroke-width="2" stroke-miterlimit="10" stroke-linecap="round" stroke-linejoin="round"/>
<path d="M29 11H26L24.7 8.9C23.6 7.1 21.7 6 19.6 6H12.4C10.3 6 8.3 7.1 7.3 8.9L6 11H3" stroke="black" stroke-width="2" stroke-miterlimit="10" stroke-linecap="round" stroke-linejoin="round"/>
<path d="M4 17H10H9C9.5 18.5 8.4 20 6.8 20H3" stroke="black" stroke-width="2" stroke-miterlimit="10" stroke-linecap="round" stroke-linejoin="round"/>
<path d="M3 23V25C3 26.1 3.9 27 5 27H7C8.1 27 9 26.1 9 25V23" stroke="black" stroke-width="2" stroke-miterlimit="10" stroke-linecap="round" stroke-linejoin="round"/>
<path d="M30 19.6C30 24.6 24.5 29 24.5 29C24.5 29 19 24.6 19 19.6C19 16.5 21.5 14 24.5 14C27.5 14 30 16.5 30 19.6Z" stroke="black" stroke-width="2" stroke-miterlimit="10" stroke-linecap="round" stroke-linejoin="round"/>
<path d="M24.5 21C25.3284 21 26 20.3284 26 19.5C26 18.6716 25.3284 18 24.5 18C23.6716 18 23 18.6716 23 19.5C23 20.3284 23.6716 21 24.5 21Z" stroke="black" stroke-width="2" stroke-miterlimit="10" stroke-linecap="round" stroke-linejoin="round"/>
</svg>
